<?xml version="1.0" standalone="no"?>
<!DOCTYPE svg PUBLIC "-//W3C//DTD SVG 20010904//EN"
 "http://www.w3.org/TR/2001/REC-SVG-20010904/DTD/svg10.dtd">
<svg version="1.0" xmlns="http://www.w3.org/2000/svg"
 width="556.000000pt" height="248.000000pt" viewBox="0 0 556.000000 248.000000"
 preserveAspectRatio="xMidYMid meet">

<g transform="translate(0.000000,248.000000) scale(0.100000,-0.100000)"
fill="#000000" stroke="none">
<path d="M1495 2462 c-46 -19 -1371 -966 -1428 -1020 -72 -69 -84 -178 -29
-261 18 -27 255 -227 692 -584 366 -298 683 -553 704 -566 30 -19 53 -25 100
-25 111 0 188 65 205 174 11 66 -6 120 -52 171 -17 20 -194 168 -392 329 -198
161 -367 299 -375 306 -12 12 319 14 2213 14 l2228 0 49 21 c55 23 114 82 136
135 17 41 18 163 2 201 -22 51 -77 111 -125 135 l-48 23 -2241 5 -2241 5 411
295 c259 187 419 308 433 329 60 90 51 194 -22 265 -65 64 -142 81 -220 48z"/>
</g>
</svg>
