<?xml version="1.0" encoding="utf-8"?>
<!-- Svg Vector Icons : http://www.onlinewebfonts.com/icon -->
<!DOCTYPE svg PUBLIC "-//W3C//DTD SVG 1.1//EN" "http://www.w3.org/Graphics/SVG/1.1/DTD/svg11.dtd">
<svg version="1.1" xmlns="http://www.w3.org/2000/svg" xmlns:xlink="http://www.w3.org/1999/xlink" x="0px" y="0px" viewBox="0 0 1000 1000" enable-background="new 0 0 1000 1000" xml:space="preserve">
<metadata> Svg Vector Icons : http://www.onlinewebfonts.com/icon </metadata>
<g><path d="M500,599.5c-162.6,0-294.8-132.2-294.8-294.8C205.2,142.2,337.5,10,500,10c162.5,0,294.8,132.2,294.8,294.8C794.8,467.3,662.6,599.5,500,599.5L500,599.5z M500,78.8c-124.6,0-225.9,101.4-225.9,225.9c0,124.5,101.4,225.9,225.9,225.9c124.5,0,225.9-101.4,225.9-225.9C725.9,180.2,624.6,78.8,500,78.8L500,78.8z M890.5,990c-19,0-34.4-15.4-34.4-34.4c0-196.3-159.7-356.1-356.1-356.1C303.7,599.5,144,759.3,144,955.6c0,19-15.4,34.4-34.5,34.4c-19,0-34.4-15.4-34.4-34.4c0-234.3,190.6-424.9,424.9-424.9c234.3,0,424.9,190.6,424.9,424.9C924.9,974.6,909.5,990,890.5,990L890.5,990z"/></g>
</svg>