<?xml version="1.0" encoding="utf-8"?>
<!-- Svg Vector Icons : http://www.onlinewebfonts.com/icon -->
<!DOCTYPE svg PUBLIC "-//W3C//DTD SVG 1.1//EN" "http://www.w3.org/Graphics/SVG/1.1/DTD/svg11.dtd">
<svg version="1.1" xmlns="http://www.w3.org/2000/svg" xmlns:xlink="http://www.w3.org/1999/xlink" x="0px" y="0px" viewBox="0 0 1000 1000" enable-background="new 0 0 1000 1000" xml:space="preserve">
<metadata> Svg Vector Icons : http://www.onlinewebfonts.com/icon </metadata>
<g><path d="M500,84.5l131.5,272.6l299,44.5l-216.5,216l7.3,43.3l43.3,258.3L500,776.9L235.5,919.2l50.6-301.7l-216.4-216l298.9-44.4l19.6-40.7L500,84.5 M500,25.2c-27.4,0-52.4,15.5-64.1,39.7L325.1,295L70,332.9c-26.2,3.9-47.9,21.8-56.4,46.3c-8.4,24.5-2,51.5,16.4,70L217,635.8l-43.4,258.8c-4.4,26.1,6.9,52.2,29,67.5c12.2,8.4,26.5,12.6,40.7,12.6c11.8,0,23.6-2.9,34.2-8.6l222.3-119.7l222.4,119.7c10.7,5.7,22.5,8.6,34.2,8.6c14.3,0,28.6-4.2,40.8-12.6c22.1-15.3,33.4-41.4,29-67.5L783,635.8l187-186.7c18.5-18.4,24.8-45.4,16.4-70c-8.4-24.5-30.2-42.4-56.4-46.3l-255-37.9L564,64.9C552.4,40.7,527.4,25.2,500,25.2L500,25.2L500,25.2z"/></g>
</svg>