<svg width="256" height="256" xmlns="http://www.w3.org/2000/svg">

 <g>
  <title>Layer 1</title>
  <path stroke="null" id="svg_1" d="m128.03619,0.28535a127.75,127.60714 0 1 0 127.75,127.60714a127.89441,127.75139 0 0 0 -127.75,-127.60714zm0,240.20168a112.72059,112.59454 0 1 1 112.72059,-112.59454a112.84855,112.72236 0 0 1 -112.72059,112.59454zm17.53431,-52.54412a7.51508,7.50668 0 0 1 -7.51471,7.5063l-10.01961,0a7.51507,7.50667 0 0 1 -7.51471,-7.5063l0,-62.55252l-2.5049,0a7.51471,7.5063 0 1 1 0,-15.01261l10.01961,0a7.51509,7.50669 0 0 1 7.51471,7.5063l0,62.55252l2.5049,0a7.51509,7.50669 0 0 1 7.51471,7.5063zm-26.39076,-106.2501a12.52502,12.51102 0 1 1 21.38217,-8.84654l0,0.00367a12.52576,12.51176 0 0 1 -21.38217,8.84287z"/>
 </g>
</svg>