<svg width="68" height="53" viewBox="0 0 68 53" fill="none" xmlns="http://www.w3.org/2000/svg">
<rect x="7.74976" y="1.25" width="58.5" height="41.5" rx="8.25" fill="white" stroke="black" stroke-width="2.5"/>
<rect x="9.99976" y="3.5" width="54" height="37" rx="6" fill="white" stroke="black" stroke-width="2"/>
<rect x="43" y="28.5" width="13" height="6" fill="#166999"/>
<path d="M10.1535 29.0535L8.48028 27.6795L8.12693 29.8155L5.30013 46.9038L4.94678 49.0398L6.97331 48.2778L23.1856 42.1817L25.2121 41.4197L23.5389 40.0457L10.1535 29.0535Z" fill="white"/>
<path d="M10.1535 29.0535L8.48028 27.6795L8.12693 29.8155L5.30013 46.9038L4.94678 49.0398L6.97331 48.2778L23.1856 42.1817L25.2121 41.4197L23.5389 40.0457L10.1535 29.0535Z" stroke="black" stroke-width="2.5"/>
<path d="M10.1535 29.0535L8.48028 27.6795L8.12693 29.8155L5.30013 46.9038L4.94678 49.0398L6.97331 48.2778L23.1856 42.1817L25.2121 41.4197L23.5389 40.0457L10.1535 29.0535Z" stroke="black" stroke-opacity="0.2" stroke-width="2.5"/>
<path d="M7.80264 45.5622L10.0641 31.8915L20.7725 40.6853L7.80264 45.5622Z" fill="white"/>
<path d="M7.80264 45.5622L10.0641 31.8915L20.7725 40.6853L7.80264 45.5622Z" stroke="black" stroke-width="2"/>
<path d="M7.80264 45.5622L10.0641 31.8915L20.7725 40.6853L7.80264 45.5622Z" stroke="black" stroke-opacity="0.2" stroke-width="2"/>
<path d="M19.8625 34.2107L24.9863 39.4627L14.9447 39.6561L19.8625 34.2107Z" fill="white"/>
<path d="M11.0583 26.9594L21.8754 35.7972L10.6915 40.923L11.0583 26.9594Z" fill="white"/>
<rect x="18" y="28.5" width="21" height="6" fill="#166999"/>
<rect x="18" y="9.5" width="13" height="6" fill="#166999"/>
<rect x="18" y="19.5" width="38" height="6" fill="#166999"/>
<rect x="35.0002" y="9.5" width="21" height="6" fill="#166999"/>
<path d="M17.5622 37.9067L22.0138 39.2666L14.8894 41.7175L17.5622 37.9067Z" fill="white"/>
<path d="M10.9622 31.7372L15.6711 36.4348L10.2592 38.3513L10.9622 31.7372Z" fill="white"/>
</svg>
